0
SECTION
2
HEADER
9
$ACADVER
1
AC1009
0
ENDSEC
0
SECTION
2
BLOCKS
0
BLOCK
8
0
2
TITLEBLOCK
70
0
10
0.0
20
0.0
30
0.0
3
TITLEBLOCK
1

0
LINE
8
0
10
0.0
20
0.0
30
0.0
11
40.0
21
0.0
31
0.0
0
ENDBLK
8
0
0
ENDSEC
0
SECTION
2
ENTITIES
0
INSERT
8
0
66
1
2
TITLEBLOCK
10
100.0
20
200.0
30
0.0
0
ATTRIB
8
0
10
101.0
20
201.0
30
0.0
40
2.5
1
LC-2026-014
2
DWGNO
70
0
0
ATTRIB
8
0
10
101.0
20
205.0
30
0.0
40
2.5
1
C
2
REV
70
0
0
ATTRIB
8
0
10
101.0
20
209.0
30
0.0
40
2.5
1
hidden value
2
SECRET
70
1
0
SEQEND
8
0
0
ENDSEC
0
EOF
