0
SECTION
2
HEADER
9
$ACADVER
1
AC1015
0
ENDSEC
0
SECTION
2
CLASSES
0
CLASS
1
ACDBPLACEHOLDER
2
AcDbPlaceHolder
3
ObjectDBX Classes
90
0
280
0
281
0
0
ENDSEC
0
SECTION
2
ENTITIES
0
LINE
5
2A0
8
0
10
0.0
20
0.0
30
0.0
11
10.0
21
5.0
31
0.0
0
ENDSEC
0
SECTION
2
OBJECTS
0
LAYOUT
5
1E
102
{ACAD_REACTORS
330
1A
102
}
330
1A
100
AcDbPlotSettings
1

2
none_device
4

6

40
0.0
41
0.0
42
0.0
43
0.0
44
0.0
45
0.0
46
0.0
47
0.0
48
0.0
49
0.0
140
0.0
141
0.0
142
1.0
143
1.0
70
   688
72
     1
73
     0
74
     5
7

75
    16
76
     0
77
     2
78
   300
147
1.0
148
0.0
149
0.0
100
AcDbLayout
1
Layout1
70
     1
71
     1
10
0.0
20
0.0
11
420.0
21
297.0
12
0.0
22
0.0
32
0.0
14
1.000000000000E+20
24
1.000000000000E+20
34
1.000000000000E+20
15
-1.000000000000E+20
25
-1.000000000000E+20
35
-1.000000000000E+20
146
0.0
13
0.0
23
0.0
33
0.0
16
1.0
26
0.0
36
0.0
17
0.0
27
1.0
37
0.0
76
     0
330
1B
0
ENDSEC
0
EOF
