0
SECTION
2
HEADER
9
$ACADVER
1
AC1015
9
$INSUNITS
70
4
9
$MEASUREMENT
70
1
0
ENDSEC
0
SECTION
2
ENTITIES
0
LINE
8
0
10
0.0
20
0.0
30
0.0
11
10.0
21
0.0
31
0.0
0
LINE
8
0
10
10.0
20
0.0
30
0.0
11
10.0
21
10.0
31
0.0
0
CIRCLE
8
0
10
5.0
20
5.0
30
0.0
40
2.5
0
ARC
8
0
10
5.0
20
5.0
30
0.0
40
4.0
50
0.0
51
90.0
0
LWPOLYLINE
8
0
90
3
70
0
10
0.0
20
0.0
10
3.0
20
4.0
10
6.0
20
0.0
0
TEXT
8
0
10
1.0
20
1.0
30
0.0
40
0.5
1
oracle
0
POINT
8
0
10
7.0
20
7.0
30
0.0
0
ELLIPSE
8
0
10
12.0
20
3.0
30
0.0
11
4.0
21
0.0
31
0.0
40
0.5
41
0.0
42
6.283185307179586
0
SOLID
8
0
10
0.0
20
0.0
30
0.0
11
1.0
21
0.0
31
0.0
12
1.0
22
1.0
32
0.0
13
0.0
23
1.0
33
0.0
0
3DFACE
8
0
10
0.0
20
0.0
30
0.0
11
1.0
21
0.0
31
0.0
12
1.0
22
1.0
32
0.0
13
0.0
23
1.0
33
0.0
0
RAY
8
0
10
0.0
20
0.0
30
0.0
11
1.0
21
1.0
31
0.0
0
XLINE
8
0
10
2.0
20
0.0
30
0.0
11
0.0
21
1.0
31
0.0
0
ENDSEC
0
EOF
