0
SECTION
2
HEADER
9
$ACADVER
1
AC1015
0
ENDSEC
0
SECTION
2
CLASSES
0
CLASS
1
ACDBPLACEHOLDER
2
AcDbPlaceHolder
3
ObjectDBX Classes
90
0
280
0
281
0
0
ENDSEC
0
SECTION
2
ENTITIES
0
LINE
5
2A0
8
0
10
0.0
20
0.0
30
0.0
11
10.0
21
5.0
31
0.0
0
ENDSEC
0
SECTION
2
OBJECTS
0
DICTIONARY
5
C
100
AcDbDictionary
281
1
3
LC_REACHABLE
350
2B0
3
LC_DANGLING
350
2C0
0
DICTIONARY
5
2B0
330
C
100
AcDbDictionary
281
1
3
LC_TEST_ENTRY
350
2B2
0
ACDBPLACEHOLDER
5
2B2
330
2B0
0
DICTIONARY
5
2C0
330
C
100
AcDbDictionary
281
1
3
LC_MISSING
350
2C9
0
ENDSEC
0
EOF
